<?xml version="1.0" encoding="utf-8"?>
<!-- Generator: Adobe Illustrator 22.0.1, SVG Export Plug-In . SVG Version: 6.00 Build 0)  -->
<svg version="1.1" id="Layer_1" xmlns="http://www.w3.org/2000/svg" xmlns:xlink="http://www.w3.org/1999/xlink" x="0px" y="0px"
	 viewBox="0 0 300 300" style="enable-background:new 0 0 300 300;" xml:space="preserve">
<style type="text/css">
	.st0{fill:url(#SVGID_1_);}
	.st1{display:none;}
	.st2{display:inline;fill:#003E69;}
</style>
<g id="Layer_1_1_">
</g>
<g id="Layer_2_1_">
	
		<linearGradient id="SVGID_1_" gradientUnits="userSpaceOnUse" x1="-401.5473" y1="149.276" x2="-101.6667" y2="149.276" gradientTransform="matrix(-1 0 0 -1 -101.6667 299.276)">
		<stop  offset="0" style="stop-color:#3A53A4"/>
		<stop  offset="1" style="stop-color:#EC2227"/>
	</linearGradient>
	<path class="st0" d="M150,0C67.2,0,0,67.2,0,150c0,4.1,0.1,8,0.5,11.9c16.1,0,32.2,0,48.3,0c6,50.6,48.9,89.9,101.1,89.9
		s95.2-39.3,101.1-89.9h24.2c-6,64-59.8,114-125.3,114c-57,0-105.3-37.9-120.8-90.1H4.2C20.3,251.3,79.4,300,149.9,300
		c82.8,0,150-67.2,150-150c0-4.1-0.1-8-0.5-11.9c-24.2,0-48.4,0-72.7,0c0.6,3.9,1,7.9,1,11.9c0,43-34.8,77.8-77.8,77.8
		S72.1,193,72.1,150c0-4.1,0.4-8,1-11.9c-16.1,0-32.3,0-48.4,0c6-64,59.8-114,125.3-114c57,0,105.3,37.9,120.8,90.1h24.9
		C279.6,48.7,220.4,0,150,0z"/>
</g>
<g id="Layer_3" class="st1">
	<path class="st2" d="M186.7,224.5v-6h4.9l-4-11.5c-0.1-0.3-0.3-0.9-0.4-1.7c-0.2-0.8-0.3-1.7-0.5-2.7v-6h4.5l13.7,35.5h-8.6
		l-2.9-7.5L186.7,224.5L186.7,224.5z M208.7,232.1v-35.5h7.9l15.7,20.7c0.4,0.6,0.9,1.4,1.5,2.5c0.5,1.1,1.1,2.3,1.7,3.8
		c-0.2-1.1-0.3-2.1-0.4-3.1s-0.1-2.3-0.1-3.9v-19.9h7.3v35.5h-7.4L218.6,211c-0.4-0.6-0.9-1.4-1.5-2.5c-0.5-1.1-1.1-2.3-1.7-3.8
		c0.2,1,0.3,2.1,0.4,3.1s0.1,2.4,0.1,3.9V232h-7.2V232.1z M257.4,232.1v-16.2l-12-19.3h8.9l5.3,9.7c0.3,0.5,0.5,1.1,0.8,1.8
		c0.3,0.7,0.6,1.6,0.9,2.6c0.2-0.8,0.5-1.6,0.8-2.3c0.3-0.7,0.6-1.4,1-2.1l5.2-9.7h8.9l-12,19.3v16.2H257.4z M186.7,196.6v6v-0.3
		c-0.2,1.2-0.4,2.2-0.6,3.1s-0.3,1.5-0.4,1.8l-3.8,11.3h4.9v6h-7.1l-2.5,7.5h-7.4v-1.9l12.8-33.6h4.1V196.6z M169.8,211.8
		c0.5-1.3,0.7-2.7,0.7-4.3c0-1.7-0.2-3.3-0.7-4.6V211.8z M169.8,202.9v8.9c-0.6,1.5-1.4,2.7-2.6,3.8c-2,1.7-4.6,2.7-7.9,2.9v-6.1
		c0.9-0.2,1.6-0.6,2.1-1c0.9-0.9,1.4-2.2,1.4-4.1c0-1.7-0.5-3-1.4-3.8c-0.5-0.4-1.2-0.8-2.1-1v-5.8c3.5,0.3,6.1,1.1,7.9,2.6
		C168.3,200.2,169.2,201.4,169.8,202.9L169.8,202.9z M169.8,230.2v1.9H169L169.8,230.2z M159.2,196.6v5.8c-0.7-0.2-1.5-0.2-2.4-0.2
		h-1.1v10.4h1.1c0.9,0,1.7-0.1,2.4-0.3v6.1c-0.5,0-0.9,0-1.4,0h-2.1V232h-7.6v-35.5h8.7C157.7,196.6,158.5,196.6,159.2,196.6
		L159.2,196.6z M78.6,233v-6.8l0,0c3.2,0,5.9-1.1,8-3.4s3.1-5.1,3.1-8.5s-1.1-6.2-3.2-8.5c-2.1-2.3-4.8-3.4-7.9-3.4l0,0v-6.7l0,0
		c2.5,0,4.9,0.5,7.2,1.4c2.3,1,4.4,2.3,6.2,4s3.2,3.7,4.1,6c0.9,2.2,1.4,4.6,1.4,7.2c0,2.5-0.5,4.9-1.4,7.2c-1,2.3-2.3,4.3-4.1,6
		c-1.8,1.8-3.9,3.1-6.2,4.1C83.5,232.6,81.1,233,78.6,233L78.6,233L78.6,233z M100.9,232.1l5.4-35.5h8l6.8,20.9
		c0.1,0.4,0.3,1.1,0.5,1.9s0.3,1.8,0.5,2.9c0.1-1.1,0.3-2.1,0.4-2.9c0.2-0.9,0.3-1.5,0.5-1.9l7-20.9h7.8l5.4,35.5H136l-2.6-21.4
		c-0.2-1.6-0.3-2.8-0.4-3.6c-0.1-0.8-0.1-1.6-0.1-2.3c0-0.4,0-0.7,0-0.8c0-0.2,0-0.3,0-0.5c-0.2,1.4-0.5,2.6-0.7,3.6
		s-0.4,1.8-0.6,2.3l-7.5,22.7h-4.3l-7.4-22.7c-0.1-0.2-0.2-0.8-0.4-1.7c-0.2-1-0.5-2.3-0.9-4.2v1c0,1.6-0.1,3.7-0.4,6.1v0.1
		l-2.6,21.4H100.9z M54.1,205.8c-1.5-1.4-3.1-2.4-4.7-3c-1.6-0.6-3.3-1-5.2-1c-3.8,0-6.8,1.1-9.1,3.4c-2.2,2.3-3.4,5.3-3.4,9.1
		c0,3.7,1,6.7,3.1,8.9c2.1,2.2,4.9,3.3,8.5,3.3c2.1,0,4-0.3,5.7-1c1.8-0.7,3.4-1.7,4.9-3.1l-0.1,7.8c-1.6,1-3.3,1.7-5.1,2.1
		c-1.8,0.5-3.6,0.7-5.6,0.7c-5.7,0-10.3-1.8-13.9-5.3c-3.6-3.5-5.5-8-5.5-13.4s1.8-9.9,5.5-13.4c3.6-3.5,8.3-5.3,14.1-5.3
		c1.9,0,3.8,0.2,5.6,0.6s3.6,1,5.3,1.9L54.1,205.8L54.1,205.8z M78.6,195.7v6.7c-3.2,0-5.9,1.2-8,3.4c-2.1,2.3-3.2,5.1-3.2,8.5
		s1,6.3,3.1,8.5s4.8,3.4,8,3.4v6.8c-2.2,0-4.3-0.4-6.3-1.1c-2.1-0.7-4-1.8-5.7-3.2c-2.2-1.8-3.9-3.9-5.1-6.4c-1.2-2.5-1.8-5.1-1.8-8
		c0-2.6,0.5-5,1.4-7.2s2.3-4.2,4.1-6c1.8-1.7,3.8-3.1,6.2-4C73.7,196.2,76.1,195.8,78.6,195.7z"/>
</g>
</svg>
